<?xml version="1.0" encoding="UTF-8" standalone="no"?>
<!-- Created with Inkscape (http://www.inkscape.org/) -->

<svg
   xmlns:dc="http://purl.org/dc/elements/1.1/"
   xmlns:cc="http://creativecommons.org/ns#"
   xmlns:rdf="http://www.w3.org/1999/02/22-rdf-syntax-ns#"
   xmlns:svg="http://www.w3.org/2000/svg"
   xmlns="http://www.w3.org/2000/svg"
   xmlns:sodipodi="http://sodipodi.sourceforge.net/DTD/sodipodi-0.dtd"
   xmlns:inkscape="http://www.inkscape.org/namespaces/inkscape"
   width="32"
   height="32"
   id="svg5406"
   version="1.1"
   inkscape:version="0.48.1 r9760"
   sodipodi:docname="ubuntu.svg">
  <defs
     id="defs5408" />
  <sodipodi:namedview
     id="base"
     pagecolor="#ffffff"
     bordercolor="#666666"
     borderopacity="1.0"
     inkscape:pageopacity="0"
     inkscape:pageshadow="2"
     inkscape:zoom="7.919596"
     inkscape:cx="44.447519"
     inkscape:cy="25.076829"
     inkscape:document-units="px"
     inkscape:current-layer="layer1"
     showgrid="false"
     fit-margin-top="0"
     fit-margin-left="0"
     fit-margin-right="0"
     fit-margin-bottom="0"
     inkscape:window-width="1440"
     inkscape:window-height="870"
     inkscape:window-x="0"
     inkscape:window-y="0"
     inkscape:window-maximized="1" />
  <metadata
     id="metadata5411">
    <rdf:RDF>
      <cc:Work
         rdf:about="">
        <dc:format>image/svg+xml</dc:format>
        <dc:type
           rdf:resource="http://purl.org/dc/dcmitype/StillImage" />
        <dc:title />
      </cc:Work>
    </rdf:RDF>
  </metadata>
  <g
     inkscape:label="Layer 1"
     inkscape:groupmode="layer"
     id="layer1"
     transform="translate(217.73777,81.902557)">
    <g
       id="g18172"
       transform="matrix(0.57338422,0,0,-0.57342532,-74.891594,289.72527)">
      <g
         style="fill:#dd4814;fill-opacity:1"
         transform="translate(-193.31919,620.18309)"
         id="g16818">
        <path
           inkscape:connector-curvature="0"
           id="path16820"
           style="fill:#dd4814;fill-opacity:1;fill-rule:nonzero;stroke:none"
           d="m 0,0 c 0,-15.414 -12.492,-27.904 -27.904,-27.904 -15.414,0 -27.905,12.49 -27.905,27.904 0,15.411 12.491,27.901 27.905,27.901 C -12.492,27.901 0,15.411 0,0" />
      </g>
      <g
         transform="translate(-240.19719,623.90909)"
         id="g16822">
        <path
           inkscape:connector-curvature="0"
           id="path16824"
           style="fill:#ffffff;fill-opacity:1;fill-rule:nonzero;stroke:none"
           d="m 0,0 c -2.06,0 -3.726,-1.672 -3.726,-3.725 0,-2.061 1.666,-3.729 3.726,-3.729 2.056,0 3.724,1.668 3.724,3.729 C 3.724,-1.672 2.056,0 0,0 z m 26.599,-16.931 c -1.782,-1.031 -2.393,-3.306 -1.363,-5.09 1.028,-1.78 3.308,-2.392 5.087,-1.361 1.784,1.023 2.393,3.306 1.364,5.085 -1.03,1.78 -3.307,2.393 -5.088,1.366 z M 8.093,-3.725 c 0,3.68 1.83,6.934 4.627,8.899 L 9.997,9.739 C 6.736,7.561 4.311,4.229 3.303,0.331 c 1.178,-0.957 1.929,-2.422 1.929,-4.056 0,-1.638 -0.751,-3.102 -1.929,-4.058 1.005,-3.902 3.43,-7.232 6.694,-9.409 l 2.723,4.564 c -2.797,1.967 -4.627,5.219 -4.627,8.903 z m 10.882,10.88 c 5.685,0 10.35,-4.361 10.837,-9.915 l 5.309,0.079 C 34.86,1.42 33.069,5.105 30.313,7.816 28.897,7.278 27.259,7.362 25.848,8.176 24.43,8.995 23.54,10.374 23.3,11.87 c -1.379,0.378 -2.827,0.59 -4.325,0.59 -2.577,0 -5.011,-0.606 -7.175,-1.678 l 2.59,-4.638 c 1.392,0.646 2.944,1.011 4.585,1.011 z m 0,-21.764 c -1.641,0 -3.193,0.366 -4.585,1.014 l -2.59,-4.638 c 2.164,-1.073 4.598,-1.679 7.175,-1.679 1.498,0 2.946,0.207 4.325,0.589 0.24,1.495 1.13,2.874 2.548,3.692 1.414,0.819 3.049,0.897 4.465,0.367 2.756,2.71 4.547,6.39 4.808,10.497 l -5.311,0.079 c -0.485,-5.563 -5.15,-9.921 -10.835,-9.921 z m 7.624,24.092 c 1.781,-1.03 4.058,-0.42 5.088,1.36 1.029,1.784 0.42,4.062 -1.364,5.086 -1.779,1.031 -4.059,0.42 -5.089,-1.359 -1.028,-1.784 -0.417,-4.056 1.365,-5.087" />
      </g>
    </g>
  </g>
</svg>
